<?xml version="1.0" standalone="no"?>
<!DOCTYPE svg PUBLIC "-//W3C//DTD SVG 20010904//EN"
 "http://www.w3.org/TR/2001/REC-SVG-20010904/DTD/svg10.dtd">
<svg version="1.0" xmlns="http://www.w3.org/2000/svg"
 width="512.000000pt" height="512.000000pt" viewBox="0 0 512.000000 512.000000"
 preserveAspectRatio="xMidYMid meet">

<g transform="translate(0.000000,512.000000) scale(0.100000,-0.100000)"
fill="#fff" stroke="none">
<path d="M1535 4945 c-323 -60 -582 -320 -641 -645 -17 -97 -21 -2450 -3
-2450 6 0 30 13 53 29 65 45 90 105 146 355 54 236 70 280 130 349 160 182
440 182 600 0 60 -69 76 -111 134 -360 81 -352 78 -349 413 -425 265 -60 308
-76 377 -139 63 -57 97 -111 120 -188 44 -148 -2 -302 -120 -410 -69 -63 -111
-79 -377 -139 -332 -75 -334 -77 -407 -402 -51 -222 -72 -296 -95 -326 -8 -10
-15 -23 -15 -27 0 -4 494 -6 1098 -5 l1097 3 80 23 c280 81 489 294 571 582
18 61 19 136 22 1368 l3 1302 -519 0 c-484 0 -524 1 -596 20 -229 58 -408 237
-466 466 -19 72 -20 112 -20 556 l0 478 -757 -1 c-575 -1 -775 -4 -828 -14z"/>
<path d="M3442 4414 l3 -409 26 -55 c33 -70 89 -126 159 -159 l55 -26 360 -3
c198 -2 407 -2 464 0 l105 3 -550 496 c-302 272 -566 510 -587 529 l-38 33 3
-409z"/>
<path d="M1450 2458 c-25 -13 -53 -37 -62 -54 -10 -17 -41 -132 -69 -255 -61
-266 -87 -328 -173 -415 -87 -86 -149 -112 -415 -173 -123 -28 -238 -59 -255
-69 -34 -19 -76 -92 -76 -132 0 -40 42 -113 76 -133 18 -9 132 -40 255 -68
266 -60 328 -86 415 -173 87 -87 112 -149 173 -415 28 -124 59 -239 69 -255
19 -34 92 -76 132 -76 40 0 113 42 132 75 9 17 42 137 72 268 62 269 80 311
171 403 85 86 147 112 414 173 123 28 238 59 255 69 34 19 76 92 76 132 0 40
-42 113 -76 132 -17 10 -132 41 -255 69 -266 61 -328 87 -415 173 -86 87 -112
149 -173 415 -28 123 -59 238 -69 255 -19 34 -92 76 -132 76 -14 0 -46 -10
-70 -22z"/>
</g>
</svg>
